<svg width="40" height="40" viewBox="0 0 40 40" fill="none" xmlns="http://www.w3.org/2000/svg">
<g id="ant-design:gift-filled">
<rect width="40" height="40" rx="4" fill="white"/>
<g id="logo_img">
<path id="Vector" d="M13.7908 24.2189L5.18893 26.0635C4.64709 26.18 4.11904 25.9038 4.01724 25.4459C3.91478 24.988 4.27995 24.5314 4.82311 24.4268L13.4657 22.7651C13.6678 22.7261 13.8779 22.7642 14.0509 22.8713C14.2239 22.9783 14.346 23.1457 14.3911 23.3376C14.4316 23.5302 14.3914 23.7302 14.2792 23.8949C14.1671 24.0596 13.9917 24.1759 13.7908 24.2189Z" fill="#E42493"/>
<path id="Vector_2" d="M12.5112 21.9296L7.23071 23.089C6.69412 23.2067 6.16804 22.933 6.06558 22.4751C5.96313 22.0173 6.3283 21.5626 6.86685 21.4617L12.1868 20.4671C12.3899 20.4275 12.6013 20.4656 12.7753 20.5731C12.9494 20.6807 13.0722 20.8491 13.1174 21.0421C13.1588 21.2363 13.1184 21.4382 13.005 21.6043C12.8916 21.7703 12.7142 21.8872 12.5112 21.9296Z" fill="#E42493"/>
<path id="Vector_3" d="M21.9349 17.5552L22.1611 15.3227C22.2231 14.7105 21.7532 14.1663 21.1114 14.1071C20.4697 14.048 19.8991 14.4963 19.8371 15.1085L19.6108 17.341C19.5488 17.9532 20.0188 18.4975 20.6605 18.5566C21.3023 18.6158 21.8728 18.1674 21.9349 17.5552Z" fill="#E42493"/>
<path id="Vector_4" d="M24.7972 18.6106L25.4323 16.4574C25.6064 15.867 25.2458 15.2537 24.6268 15.0877C24.0079 14.9217 23.3649 15.2658 23.1908 15.8562L22.5558 18.0094C22.3817 18.5999 22.7423 19.2131 23.3612 19.3791C23.9802 19.5452 24.6231 19.2011 24.7972 18.6106Z" fill="#E42493"/>
<path id="Vector_5" d="M18.9493 19.8142L18.8055 15.4507C18.7852 14.836 18.2464 14.3533 17.602 14.3726C16.9575 14.3919 16.4515 14.9059 16.4718 15.5207L16.6156 19.8842C16.6358 20.4989 17.1747 20.9816 17.8191 20.9623C18.4635 20.943 18.9695 20.429 18.9493 19.8142Z" fill="#E42493"/>
<path id="Vector_6" d="M16.1584 20.8663L15.444 16.6551C15.3433 16.0618 14.6816 15.6703 13.966 15.7807C13.2504 15.8911 12.7519 16.4616 12.8526 17.0549L13.567 21.2662C13.6676 21.8595 14.3293 22.2509 15.0449 22.1405C15.7605 22.0301 16.259 21.4596 16.1584 20.8663Z" fill="#E42493"/>
<path id="Vector_7" d="M24.9542 23.2449L24.9581 23.2368C25.0695 23.0251 25.107 22.785 25.0649 22.5515C25.0228 22.3181 24.9034 22.1037 24.7243 21.9396L21.9658 19.4223C21.8549 19.3213 21.7243 19.242 21.5813 19.189C21.4383 19.1361 21.2857 19.1106 21.1324 19.1139C20.979 19.1171 20.8279 19.1492 20.6875 19.2082C20.5471 19.2672 20.4203 19.352 20.3143 19.4577C20.2083 19.5635 20.1252 19.6881 20.0697 19.8244C20.0142 19.9608 19.9874 20.1063 19.9909 20.2525C19.9943 20.3988 20.0279 20.5429 20.0898 20.6768C20.1517 20.8107 20.2406 20.9316 20.3515 21.0327L22.2325 22.7495L19.9823 24.7695H17.9824C17.6727 24.7695 17.3757 24.8868 17.1567 25.0956C16.9377 25.3045 16.8147 25.5877 16.8147 25.8831C16.8147 26.1785 16.9377 26.4617 17.1567 26.6706C17.3757 26.8794 17.6727 26.9967 17.9824 26.9967H20.3344C20.3423 26.9967 20.3495 26.9967 20.3574 26.9967C20.5182 27.0085 20.6798 26.9883 20.832 26.9373C20.9842 26.8863 21.1236 26.8056 21.2414 26.7005L24.6895 23.6038C24.7953 23.499 24.8839 23.3795 24.9522 23.2493L24.9542 23.2449Z" fill="#E42493"/>
<path id="Vector_8" d="M26.7877 21.6465C26.8475 21.6371 26.9079 21.6246 26.9677 21.6095L32.0702 20.3161C32.2126 20.2831 32.3363 20.1993 32.4159 20.082C32.4955 19.9647 32.5251 19.8228 32.4984 19.6854C32.4641 19.5496 32.3764 19.4315 32.2535 19.3556C32.1305 19.2796 31.9817 19.2515 31.8377 19.277L26.6255 20.0794C26.5552 20.0907 26.4869 20.1051 26.4199 20.122H26.4088L25.9523 20.2147C25.7737 20.251 25.6176 20.3535 25.5182 20.4996C25.4188 20.6457 25.3843 20.8235 25.4223 20.9938L25.4742 21.2406C25.493 21.325 25.529 21.405 25.5803 21.4761C25.6315 21.5472 25.697 21.6079 25.7728 21.6548C25.8487 21.7018 25.9336 21.734 26.0225 21.7497C26.1114 21.7653 26.2028 21.7641 26.2912 21.7461L26.7477 21.6534C26.7601 21.6534 26.7726 21.6496 26.7877 21.6465Z" fill="#E42493"/>
<path id="Vector_9" d="M26.9847 19.1355C27.0464 19.1261 27.1088 19.1148 27.1712 19.0998L35.5681 17.1067C35.7088 17.0755 35.8313 16.9936 35.9099 16.8781C35.9885 16.7626 36.0172 16.6225 35.9898 16.4873C35.9571 16.353 35.871 16.2361 35.7498 16.1611C35.6285 16.0861 35.4815 16.0589 35.3396 16.0852L26.8218 17.5308C26.7561 17.5421 26.6964 17.5552 26.6359 17.5709C26.6143 17.5709 26.5919 17.5765 26.5703 17.5809L26.1138 17.6736C25.9353 17.7101 25.7793 17.8126 25.6799 17.9587C25.5806 18.1048 25.546 18.2824 25.5838 18.4528L25.6495 18.7396C25.6683 18.824 25.7043 18.904 25.7556 18.975C25.8068 19.0461 25.8723 19.1068 25.9482 19.1537C26.0241 19.2006 26.1089 19.2327 26.1979 19.2483C26.2868 19.2639 26.3781 19.2626 26.4665 19.2445L26.9223 19.1518C26.9433 19.1474 26.965 19.1417 26.9847 19.1355Z" fill="#E42493"/>
</g>
</g>
</svg>
