<svg width="66" height="66" viewBox="0 0 66 66" fill="none" xmlns="http://www.w3.org/2000/svg">
<g id="grommet-icons:group">
<path id="Vector" d="M33 35.75C35.9174 35.75 38.7153 34.5911 40.7782 32.5282C42.8411 30.4653 44 27.6674 44 24.75C44 21.8326 42.8411 19.0347 40.7782 16.9718C38.7153 14.9089 35.9174 13.75 33 13.75C30.0826 13.75 27.2847 14.9089 25.2218 16.9718C23.1589 19.0347 22 21.8326 22 24.75C22 27.6674 23.1589 30.4653 25.2218 32.5282C27.2847 34.5911 30.0826 35.75 33 35.75ZM33 35.75C28.6239 35.75 24.4271 37.4884 21.3327 40.5827C18.2384 43.6771 16.5 47.8739 16.5 52.25V60.5M33 35.75C37.3761 35.75 41.5729 37.4884 44.6673 40.5827C47.7616 43.6771 49.5 47.8739 49.5 52.25V60.5M35.75 13.75C36.861 9.174 41.2912 5.5 46.75 5.5C52.723 5.5 57.695 10.4225 57.75 16.5C57.695 22.5775 52.723 27.5 46.75 27.5M46.75 27.5H44M46.75 27.5C55.792 27.5 63.25 34.8865 63.25 44V49.5M30.25 13.75C29.139 9.174 24.7088 5.5 19.25 5.5C13.277 5.5 8.305 10.4225 8.25 16.5C8.305 22.5775 13.277 27.5 19.25 27.5M19.25 27.5H22M19.25 27.5C10.208 27.5 2.75 34.8865 2.75 44V49.5" stroke="#DF2B82" stroke-width="3"/>
</g>
</svg>
