<svg width="16" height="18" viewBox="0 0 16 18" fill="none" xmlns="http://www.w3.org/2000/svg">
<g id="Frame 609">
<path id="Vector" d="M14.0605 1.83577C14.0747 1.83577 14.0882 1.84123 14.0982 1.85094C14.1082 1.86065 14.1139 1.87382 14.1139 1.88755V13.0811C14.1139 13.0948 14.1082 13.108 14.0982 13.1177C14.0882 13.1274 14.0747 13.1328 14.0605 13.1328H5.36199C5.34785 13.1328 5.33428 13.1274 5.32428 13.1177C5.31428 13.108 5.30866 13.0948 5.30866 13.0811V1.88755C5.30866 1.87382 5.31428 1.86065 5.32428 1.85094C5.33428 1.84123 5.34785 1.83577 5.36199 1.83577H14.0605ZM14.0605 0H5.36199C4.84761 0 4.3543 0.198371 3.99058 0.551473C3.62686 0.904575 3.42252 1.38348 3.42252 1.88285V13.0811C3.42252 13.5804 3.62686 14.0593 3.99058 14.4124C4.3543 14.7655 4.84761 14.9639 5.36199 14.9639H14.0605C14.5749 14.9639 15.0682 14.7655 15.4319 14.4124C15.7957 14.0593 16 13.5804 16 13.0811V1.88755C16 1.38819 15.7957 0.909282 15.4319 0.55618C15.0682 0.203078 14.5749 0.00470722 14.0605 0.00470722V0Z" fill="#DF2B82"/>
<path id="Vector_2" d="M10.638 16.1798H1.93947C1.92533 16.1798 1.91176 16.1743 1.90176 16.1646C1.89176 16.1549 1.88614 16.1417 1.88614 16.128V4.92272C1.88614 4.92272 1.88614 4.91096 1.88614 4.90625H0V16.1162C0 16.6156 0.204337 17.0945 0.568058 17.4476C0.93178 17.8007 1.42509 17.9991 1.93947 17.9991H10.6429V16.1657L10.638 16.1798Z" fill="#DF2B82"/>
</g>
</svg>
