<svg width="8" height="8" viewBox="0 0 8 8" fill="none" xmlns="http://www.w3.org/2000/svg">
<path id="Vector" d="M7.8496 1.66964L4.3624 7.75951C4.29822 7.87101 4.19754 7.95132 4.08104 7.98395C3.96455 8.01658 3.84108 7.99906 3.736 7.93497C3.66631 7.89215 3.60746 7.83094 3.5648 7.75688L0.146002 1.667C0.0502161 1.49633 -0.000338839 1.29979 1.7092e-06 1.09938C0.00431925 0.803517 0.115486 0.521613 0.309111 0.315527C0.502735 0.10944 0.763001 -0.00399647 1.0328 0.000107607H6.972C7.5388 0.000107607 8 0.490526 8 1.09675C8 1.29853 7.948 1.4968 7.8492 1.66964M0.985201 1.4661L3.5292 5.76713V1.03227H1.2512C0.988001 1.03227 0.870002 1.22352 0.985602 1.4661M4.4704 5.76713L7.0144 1.4661C7.1316 1.22352 7.0116 1.03227 6.7484 1.03227H4.4704V5.76713Z" fill="white"/>
</svg>
