<svg width="16" height="18" viewBox="0 0 16 18" fill="none" xmlns="http://www.w3.org/2000/svg">
<g id="Frame 609">
<path id="Vector" d="M14.0606 1.83623C14.0747 1.83623 14.0883 1.84169 14.0983 1.8514C14.1083 1.86111 14.1139 1.87428 14.1139 1.88801V13.0815C14.1139 13.0953 14.1083 13.1084 14.0983 13.1181C14.0883 13.1278 14.0747 13.1333 14.0606 13.1333H5.36202C5.34787 13.1333 5.33431 13.1278 5.3243 13.1181C5.3143 13.1084 5.30868 13.0953 5.30868 13.0815V1.88801C5.30868 1.87428 5.3143 1.86111 5.3243 1.8514C5.33431 1.84169 5.34787 1.83623 5.36202 1.83623H14.0606ZM14.0606 0.000457764H5.36202C4.84764 0.000457764 4.35433 0.198828 3.9906 0.55193C3.62688 0.905032 3.42255 1.38394 3.42255 1.8833V13.0815C3.42255 13.5809 3.62688 14.0598 3.9906 14.4129C4.35433 14.766 4.84764 14.9644 5.36202 14.9644H14.0606C14.5749 14.9644 15.0682 14.766 15.432 14.4129C15.7957 14.0598 16 13.5809 16 13.0815V1.88801C16 1.38865 15.7957 0.909739 15.432 0.556638C15.0682 0.203536 14.5749 0.00516498 14.0606 0.00516498V0.000457764Z" fill="white"/>
<path id="Vector_2" d="M10.638 16.1802H1.93947C1.92533 16.1802 1.91176 16.1748 1.90176 16.1651C1.89176 16.1554 1.88614 16.1422 1.88614 16.1285V4.92318C1.88614 4.92318 1.88614 4.91141 1.88614 4.90671H0V16.1167C0 16.6161 0.204337 17.095 0.568058 17.4481C0.93178 17.8012 1.42509 17.9995 1.93947 17.9995H10.6429V16.1661L10.638 16.1802Z" fill="white"/>
</g>
</svg>
